<svg width="187" height="47" viewBox="0 0 187 47" fill="none" xmlns="http://www.w3.org/2000/svg">
<path d="M0.48 46V1.2H10.72V18.16H28V1.2H38.24V46H28V28.72H10.72V46H0.48ZM82.558 40.112C78.3767 44.464 73.214 46.64 67.07 46.64C60.926 46.64 55.7633 44.464 51.582 40.112C47.4007 35.76 45.31 30.256 45.31 23.6C45.31 16.944 47.4007 11.44 51.582 7.088C55.7633 2.736 60.926 0.559998 67.07 0.559998C73.214 0.559998 78.3767 2.736 82.558 7.088C86.7393 11.44 88.83 16.944 88.83 23.6C88.83 30.256 86.7393 35.76 82.558 40.112ZM58.814 33.136C61.0327 35.5253 63.7847 36.72 67.07 36.72C70.3553 36.72 73.086 35.5253 75.262 33.136C77.4807 30.704 78.59 27.5253 78.59 23.6C78.59 19.6747 77.4807 16.5173 75.262 14.128C73.086 11.696 70.3553 10.48 67.07 10.48C63.7847 10.48 61.0327 11.696 58.814 14.128C56.638 16.5173 55.55 19.6747 55.55 23.6C55.55 27.5253 56.638 30.704 58.814 33.136ZM95.855 46V1.2H111.535L120.495 29.04H121.775L130.735 1.2H146.415V46H136.175V18.48H134.895L125.935 46H116.335L107.375 18.48H106.095V46H95.855ZM155.355 46V1.2H186.075V10.48H165.595V19.12H184.795V28.08H165.595V36.72H186.075V46H155.355Z" fill="#333333"/>
</svg>
