<svg width="408" height="132" viewBox="0 0 408 132" fill="none" xmlns="http://www.w3.org/2000/svg">
<path d="M0.32 67.96H10.56V59H34.56V67.96H44.8V49.08H40V14.2H8.64L6.08 43.64C5.76 47.48 4.16 49.08 0.32 49.08V67.96ZM14.08 49.08C14.08 49.08 15.936 47.8 16.32 43.64L17.92 24.12H29.76V49.08H14.08ZM70.3825 59.64C82.5425 59.64 92.1425 50.04 92.1425 36.6C92.1425 23.16 82.5425 13.56 70.3825 13.56C58.2225 13.56 48.6225 23.16 48.6225 36.6C48.6225 50.04 58.2225 59.64 70.3825 59.64ZM70.3825 49.72C63.9825 49.72 58.8625 44.6 58.8625 36.6C58.8625 28.6 63.9825 23.48 70.3825 23.48C76.7825 23.48 81.9025 28.6 81.9025 36.6C81.9025 44.6 76.7825 49.72 70.3825 49.72ZM119.008 59.64C136.608 59.64 139.488 42.04 139.488 42.04H129.248C129.248 42.04 127.648 49.72 119.008 49.72C112.608 49.72 107.488 44.6 107.488 36.6C107.488 28.6 112.608 23.48 119.008 23.48C127.328 23.48 129.248 30.84 129.248 30.84H139.488C139.488 30.84 136.288 13.56 119.008 13.56C106.848 13.56 97.2475 23.16 97.2475 36.6C97.2475 50.04 106.848 59.64 119.008 59.64ZM147.518 59H153.726C160.958 59 163.518 56.44 165.758 51.64L183.038 14.2H171.838L162.878 34.36H161.598L151.998 14.2H140.477L156.926 46.84L156.478 47.8C155.838 49.08 155.198 49.72 153.598 49.72H147.518V59ZM186.543 59H196.783V24.12H216.303V14.2H186.543V59ZM240.633 59.64C252.793 59.64 262.393 50.04 262.393 36.6C262.393 23.16 252.793 13.56 240.633 13.56C228.473 13.56 218.873 23.16 218.873 36.6C218.873 50.04 228.473 59.64 240.633 59.64ZM240.633 49.72C234.233 49.72 229.113 44.6 229.113 36.6C229.113 28.6 234.233 23.48 240.633 23.48C247.033 23.48 252.153 28.6 252.153 36.6C252.153 44.6 247.033 49.72 240.633 49.72ZM269.418 59H291.818C299.818 59 304.938 53.88 304.938 46.52C304.938 39.736 299.498 36.6 299.498 36.6V36.28C299.498 36.28 304.298 33.208 304.298 26.68C304.298 19.32 299.178 14.2 291.178 14.2H269.418V59ZM279.658 50.04V41.08H290.218C292.778 41.08 294.698 43 294.698 45.56C294.698 48.12 292.778 50.04 290.218 50.04H279.658ZM279.658 32.12V23.16H289.578C292.138 23.16 294.058 25.08 294.058 27.64C294.058 30.2 292.138 32.12 289.578 32.12H279.658ZM312.605 59H332.125C340.765 59 346.845 52.92 346.845 43.64C346.845 34.36 340.765 28.28 332.125 28.28H322.845V14.2H312.605V59ZM322.845 49.08V38.2H331.485C334.365 38.2 336.605 40.44 336.605 43.64C336.605 46.84 334.365 49.08 331.485 49.08H322.845ZM351.005 59H361.245V14.2H351.005V59ZM370.23 59H382.39L396.47 32.12H397.75V59H407.99V14.2H395.83L381.75 41.08H380.47V14.2H370.23V59ZM389.11 9.4C395.51 9.4 399.35 5.56 399.67 0.119999H392.63C392.31 2.04 391.03 3.32 389.11 3.32C387.19 3.32 385.91 2.04 385.59 0.119999H378.55C378.87 5.56 382.71 9.4 389.11 9.4ZM35.52 131.96H45.76V113.08H40.96V78.2H30.72V113.08H14.72V78.2H4.48V123H35.52V131.96ZM51.5425 123H82.2625V113.72H61.7825V105.08H80.9825V96.12H61.7825V87.48H82.2625V78.2H51.5425V123ZM89.9175 123H100.158V105.72H117.438V123H127.678V78.2H117.438V95.16H100.158V78.2H89.9175V123ZM145.948 123H156.188V88.12H168.668V78.2H133.468V88.12H145.948V123ZM174.418 123H184.658V109.56H195.218C203.858 109.56 209.938 103.48 209.938 93.88C209.938 84.28 203.858 78.2 195.218 78.2H174.418V123ZM184.658 99.64V88.12H194.578C197.458 88.12 199.698 90.36 199.698 93.88C199.698 97.4 197.458 99.64 194.578 99.64H184.658Z" fill="white"/>
</svg>
